<svg xmlns="http://www.w3.org/2000/svg" xmlns:xlink="http://www.w3.org/1999/xlink" width="50px" height="50px" viewBox="0 0 50 50"><title>Code Reviews2</title><desc>Created with Sketch.</desc><defs><linearGradient x1="75.4765625%" y1="91.8652344%" x2="23.3007812%" y2="9.76367188%" id="linearGradient-1"><stop stop-color="#85C26A" offset="0%"></stop><stop stop-color="#CCF5BA" offset="100%"></stop></linearGradient><filter x="-8.7%" y="-15.3%" width="117.5%" height="130.6%" filterUnits="objectBoundingBox" id="filter-2"><feGaussianBlur stdDeviation="1"></feGaussianBlur></filter></defs><g id="Page-1" stroke="none" stroke-width="1" fill="none" fill-rule="evenodd"><g id="Icons-V2-Copy" transform="translate(-458.000000, -490.000000)"><g id="Code-Reviews2" transform="translate(458.000000, 490.000000)"><g id="Code-Reviews-2"><circle id="Oval" fill="url(#linearGradient-1)" cx="25" cy="25" r="25"></circle><path d="M40.342377,33.66 L41.32,33.66 C41.8722847,33.66 42.32,34.1077153 42.32,34.66 L42.32,35.6 C42.32,36.1522847 41.8722847,36.6 41.32,36.6 L9,36.6 C8.44771525,36.6 8,36.1522847 8,35.6 L8,34.66 C8,34.1077153 8.44771525,33.66 9,33.66 L10.060024,33.66 L10.060024,18 C10.060024,17.4477153 10.5077393,17 11.060024,17 L39.342377,17 C39.8946617,17 40.342377,17.4477153 40.342377,18 L40.342377,33.66 Z" id="Combined-Shape" fill="#8DC774" filter="url(#filter-2)"></path><g id="Group-13" transform="translate(8.291667, 14.583333)"><g id="Group-29" fill="#FFFFFF"><path d="M3,0 L31,0 C31.5522847,-1.01453063e-16 32,0.44771525 32,1 L32,19 C32,19.5522847 31.5522847,20 31,20 L3,20 C2.44771525,20 2,19.5522847 2,19 L2,1 C2,0.44771525 2.44771525,1.01453063e-16 3,0 Z" id="Rectangle"></path><path d="M1,17 L33,17 C33.5522847,17 34,17.4477153 34,18 L34,19 C34,19.5522847 33.5522847,20 33,20 L1,20 C0.44771525,20 6.76353751e-17,19.5522847 0,19 L0,18 C-6.76353751e-17,17.4477153 0.44771525,17 1,17 Z" id="Rectangle"></path></g><polygon id="Path" fill="#8BC670" opacity="0.7" points="9.71809996 13 6 9.500111 9.71809996 6 11 7.20666689 8.56332851 9.500111 11 11.7935551"></polygon><polygon id="Path" fill="#8BC670" opacity="0.7" points="24.2816642 13 23 11.7935551 25.4364356 9.500111 23 7.20666689 24.2816642 6 28 9.500111"></polygon></g><path d="M27.4747703,22.810179 L26.1446902,22.6090546 L25.5498565,21.3550346 C25.3252576,20.8815353 24.6745431,20.881775 24.4500594,21.3550346 L23.8552641,22.6090546 L22.525184,22.810179 C22.0229474,22.8861051 21.8221603,23.5301186 22.1853284,23.8984802 L23.1477469,24.8746106 L22.9205364,26.2529496 C22.8347372,26.7734433 23.3613232,27.1711364 23.8102905,26.9255753 L24.9999579,26.2748084 L26.1896254,26.9255753 C26.6349441,27.1691783 27.1658316,26.7773195 27.0793795,26.2529496 L26.852169,24.8746106 L27.8146259,23.8984802 C28.1780629,23.5298388 27.9766997,22.8860651 27.4747703,22.810179 Z" id="Path" fill="#8BC670" opacity="0.699999988"></path></g></g></g></g></svg>