<svg xmlns="http://www.w3.org/2000/svg" xmlns:xlink="http://www.w3.org/1999/xlink" width="50px" height="50px" viewBox="0 0 50 50"><title>Stand ups</title><desc>Created with Sketch.</desc><defs><linearGradient x1="75.4765625%" y1="91.8652344%" x2="23.3007812%" y2="9.76367188%" id="linearGradient-1"><stop stop-color="#F6B684" offset="0%"></stop><stop stop-color="#FFEFCB" offset="100%"></stop></linearGradient><filter x="-10.0%" y="-15.0%" width="120.0%" height="130.0%" filterUnits="objectBoundingBox" id="filter-2"><feGaussianBlur stdDeviation="1"></feGaussianBlur></filter></defs><g id="Page-1" stroke="none" stroke-width="1" fill="none" fill-rule="evenodd"><g id="Icons-V2-Copy" transform="translate(-388.000000, -490.000000)"><g id="Stand-ups" transform="translate(388.000000, 490.000000)"><circle id="Oval" fill="url(#linearGradient-1)" cx="25" cy="25" r="25"></circle><path d="M11,17 L39,17 C39.5522847,17 40,17.4477153 40,18 L40,36 C40,36.5522847 39.5522847,37 39,37 L11,37 C10.4477153,37 10,36.5522847 10,36 L10,18 C10,17.4477153 10.4477153,17 11,17 Z" id="Rectangle" fill="#F6B684" filter="url(#filter-2)"></path><g id="Rectangle-2" transform="translate(10.000000, 15.000000)"><path d="M1,0 L29,0 C29.5522847,-1.01453063e-16 30,0.44771525 30,1 L30,19 C30,19.5522847 29.5522847,20 29,20 L1,20 C0.44771525,20 6.76353751e-17,19.5522847 0,19 L0,1 C-6.76353751e-17,0.44771525 0.44771525,1.01453063e-16 1,0 Z" id="Rectangle" fill="#FFFFFF"></path><g id="review" transform="translate(10.000000, 3.000000)" fill="#F78761" opacity="0.701799665"><path d="M8.71427908,9.09494702e-13 L1.28572092,9.09494702e-13 C0.576786916,9.09494702e-13 0,0.563807 0,1.2568505 L0,3.91017004 C0,4.60318517 0.576757899,5.16702054 1.28572092,5.16702054 L3.96534113,5.16702054 L4.69696706,5.88218969 C4.78062539,5.96402624 4.8903127,6.00490196 5,6.00490196 C5.1096873,6.00490196 5.21937461,5.96402624 5.30303294,5.88218969 L6.03465887,5.16702054 L8.71427908,5.16702054 C9.42321308,5.16702054 10,4.60321354 10,3.91017004 L10,1.2568505 C10,0.563807 9.42321308,9.09494702e-13 8.71427908,9.09494702e-13 Z M1.85713954,1.32665977 L5.28570931,1.32665977 C5.52240755,1.32665977 5.71427328,1.51424559 5.71427328,1.74560048 C5.71427328,1.97695538 5.52237853,2.16454119 5.28570931,2.16454119 L1.85713954,2.16454119 C1.6204413,2.16454119 1.42857557,1.97695538 1.42857557,1.74560048 C1.42857557,1.51424559 1.62047032,1.32665977 1.85713954,1.32665977 Z M8.14286046,3.84036077 L1.85713954,3.84036077 C1.6204413,3.84036077 1.42857557,3.65277495 1.42857557,3.42142006 C1.42857557,3.19006516 1.62047032,3.00247935 1.85713954,3.00247935 L8.14283144,3.00247935 C8.37952968,3.00247935 8.57139541,3.19006516 8.57139541,3.42142006 C8.57142443,3.65277495 8.37952968,3.84036077 8.14286046,3.84036077 Z" id="Shape" fill-rule="nonzero"></path><path d="M5,6 C3.89719145,6 3,6.89719145 3,8 C3,9.10280855 3.89719145,10 5,10 C6.10280855,10 7,9.10280855 7,8 C7,6.89719145 6.10280855,6 5,6 Z" id="Path"></path><path d="M6.16130131,11 L3.8387249,11 C2.27345281,11 1,12.1843074 1,13.6400058 C1,13.8388326 1.17332503,14 1.3870917,14 L8.6129083,14 C8.82670118,14 9,13.8388082 9,13.6400058 C9,12.1843074 7.7265734,11 6.16130131,11 Z" id="Path"></path></g></g></g></g></g></svg>