<svg xmlns="http://www.w3.org/2000/svg" xmlns:xlink="http://www.w3.org/1999/xlink" width="15px" height="39px" viewBox="0 0 15 39"><title>Group 41</title><desc>Created with Sketch.</desc><defs></defs><g id="Page-1" stroke="none" stroke-width="1" fill="none" fill-rule="evenodd"><g id="landing-page" transform="translate(-713.000000, -10934.000000)"><g id="process" transform="translate(0.000000, 10586.000000)"><g id="Group-17" transform="translate(255.000000, 145.000000)"><g id="Group-16" transform="translate(330.000000, 0.000000)"><g id="Group-41" transform="translate(130.000000, 205.000000)"><circle id="Oval" fill="#FFFFFF" cx="5.5" cy="5.5" r="5.5"></circle><path id="Line" d="M5.5,-2 C1.63400675,-2 -1.5,1.13400675 -1.5,5 C-1.5,8.86599325 1.63400675,12 5.5,12 C9.36599325,12 12.5,8.86599325 12.5,5 C12.5,1.13400675 9.36599325,-2 5.5,-2 Z M5.5,0 C8.26142375,0 10.5,2.23857625 10.5,5 C10.5,7.76142375 8.26142375,10 5.5,10 C2.73857625,10 0.5,7.76142375 0.5,5 C0.5,2.23857625 2.73857625,0 5.5,0 Z M4.75314159,36.2662749 C4.83395044,36.4278926 4.96499882,36.558941 5.12661653,36.6397499 C5.53914556,36.8460144 6.04077684,36.678804 6.24704135,36.2662749 L12.4118345,23.9366886 C12.4698147,23.8207283 12.5,23.6928612 12.5,23.5632136 C12.5,23.1019922 12.1261061,22.7280983 11.6648846,22.7280983 L-0.664701706,22.7280983 C-0.794349269,22.7280983 -0.922216342,22.7582836 -1.03817665,22.8162638 C-1.45070568,23.0225283 -1.6179161,23.5241596 -1.41165159,23.9366886 L4.75314159,36.2662749 Z M4.5,11 L4.5,23.7280983 L4.5,24.7280983 L6.5,24.7280983 L6.5,23.7280983 L6.5,11 L6.5,10 L4.5,10 L4.5,11 Z" fill="#D3EEEC" fill-rule="nonzero"></path></g></g></g></g></g></g></svg>