<svg xmlns="http://www.w3.org/2000/svg" xmlns:v="https://vecta.io/nano" width="120" height="50" fill="none"><path d="M31.667 19.761H18.618v3.872h9.255c-.459 5.419-4.974 7.746-9.241 7.746a10.17 10.17 0 0 1-3.937-.775c-1.248-.517-2.38-1.278-3.331-2.237s-1.701-2.099-2.206-3.351-.757-2.593-.739-3.944c-.024-1.357.223-2.705.727-3.965a10.19 10.19 0 0 1 5.548-5.627c1.253-.521 2.597-.787 3.954-.783 2.599-.005 5.099.998 6.974 2.799l2.71-2.808a13.79 13.79 0 0 0-9.828-3.873A14.46 14.46 0 0 0 4.171 21.004c.041 3.817 1.595 7.462 4.321 10.135a14.41 14.41 0 0 0 10.217 4.122c7.615 0 13.19-5.217 13.19-12.931a11.59 11.59 0 0 0-.236-2.568h.003z" fill="#4885ed"></path><path d="M42.355 16.957c-1.806.006-3.569.547-5.068 1.554s-2.666 2.435-3.354 4.105-.866 3.505-.513 5.276 1.224 3.397 2.501 4.673 2.903 2.147 4.674 2.5 3.606.175 5.276-.513a9.14 9.14 0 0 0 5.658-8.422c.019-1.21-.206-2.411-.66-3.533s-1.13-2.14-1.985-2.996-1.874-1.53-2.996-1.985-2.323-.679-3.533-.66h0zm.052 3.591c.706.016 1.401.174 2.044.465s1.221.708 1.7 1.227.848 1.129 1.086 1.793.339 1.37.298 2.075a5.19 5.19 0 0 1-1.387 3.905 5.19 5.19 0 0 1-3.803 1.645 5.19 5.19 0 0 1-3.795-1.664 5.19 5.19 0 0 1-1.366-3.912 5.28 5.28 0 0 1 .322-2.087c.247-.667.626-1.277 1.114-1.794s1.077-.929 1.729-1.213 1.355-.433 2.066-.438h-.008z" fill="#db3236"></path><path d="M62.347 16.957c-1.806.006-3.569.547-5.068 1.554s-2.666 2.435-3.354 4.105-.866 3.505-.513 5.276 1.224 3.397 2.501 4.673 2.903 2.147 4.674 2.5 3.606.175 5.276-.513a9.14 9.14 0 0 0 5.658-8.422c.019-1.21-.206-2.411-.66-3.533s-1.13-2.14-1.985-2.996-1.874-1.53-2.996-1.985-2.323-.679-3.533-.66h0zm.052 3.591c.706.016 1.401.174 2.044.465s1.221.708 1.7 1.227.848 1.129 1.085 1.793.339 1.37.299 2.075a5.19 5.19 0 0 1-1.387 3.905 5.19 5.19 0 0 1-3.803 1.645 5.19 5.19 0 0 1-3.795-1.664 5.19 5.19 0 0 1-1.366-3.912c-.035-.71.075-1.42.322-2.087s.626-1.277 1.114-1.794 1.077-.929 1.729-1.213 1.355-.433 2.066-.438h-.008z" fill="#f4c20d"></path><path d="M81.953 16.967c-4.915 0-8.777 4.304-8.777 9.136a9.02 9.02 0 0 0 8.692 9.154 6 6 0 0 0 5.002-2.222v1.803c0 3.155-1.918 5.044-4.806 5.044-1.017-.012-2.007-.329-2.843-.909s-1.479-1.397-1.846-2.346l-3.515 1.458a8.8 8.8 0 0 0 8.233 5.385c4.899 0 8.611-3.078 8.611-9.533V17.521h-3.818v1.548a6.46 6.46 0 0 0-4.929-2.098l-.003-.004zm.354 3.585c2.41 0 4.882 2.058 4.882 5.571 0 3.574-2.47 5.539-4.937 5.539-.698-.017-1.384-.175-2.02-.463s-1.206-.702-1.678-1.216-.835-1.118-1.069-1.775-.332-1.355-.29-2.052c0-3.51 2.528-5.605 5.11-5.605l.001.001z" fill="#4885ed"></path><path d="M107.771 16.945c-4.636 0-8.528 3.689-8.528 9.13a8.84 8.84 0 0 0 .585 3.515c.431 1.12 1.086 2.14 1.925 2.999a8.84 8.84 0 0 0 6.454 2.661c1.506.005 2.992-.357 4.327-1.056s2.479-1.713 3.333-2.954l-3.161-2.103c-.459.777-1.115 1.419-1.901 1.861a5.12 5.12 0 0 1-2.578.656c-.939.039-1.868-.204-2.668-.699s-1.432-1.216-1.817-2.074L116 23.794l-.625-1.49c-.586-1.552-1.623-2.893-2.979-3.848a8.28 8.28 0 0 0-4.625-1.511h0zm.159 3.516c.691-.029 1.376.139 1.975.485s1.088.855 1.408 1.468l-8.187 3.422c-.041-.668.052-1.338.271-1.97a5.08 5.08 0 0 1 1.008-1.715c.446-.5.986-.906 1.589-1.196s1.258-.458 1.927-.494h.009z" fill="#db3236"></path><path d="M93.388 34.707h4.027V7.759h-4.027v26.948z" fill="#3cba54"></path></svg>