<svg xmlns="http://www.w3.org/2000/svg" xmlns:v="https://vecta.io/nano" width="120" height="50" fill="none"><path d="M51.92 27.759h7.335l-3.878-6.486L48.258 33h-3.24l8.658-14.087c.376-.569 1.004-.913 1.7-.913.673 0 1.3.332 1.665.889L65.733 33h-3.24l-1.529-2.621h-7.426l-1.62-2.62zm33.651 2.621V18.142h-2.749v13.435a1.43 1.43 0 0 0 .399.996c.262.273.616.427 1.004.427H96.76l1.62-2.621H85.57zm-45.48-2.194c2.669 0 4.837-2.241 4.837-5.016s-2.167-5.028-4.837-5.028H28.064V33h2.748V20.763h9.096c1.278 0 2.304 1.079 2.304 2.407s-1.027 2.407-2.304 2.407l-7.75-.012L40.364 33h3.993l-5.521-4.814h1.255zM11.148 33C7.202 33 4 29.68 4 25.577s3.202-7.435 7.148-7.435h8.308c3.947 0 7.147 3.332 7.147 7.435S23.402 33 19.455 33h-8.308zm8.123-2.621c2.556 0 4.627-2.146 4.627-4.802s-2.07-4.814-4.627-4.814h-7.939c-2.555 0-4.627 2.158-4.627 4.814s2.072 4.802 4.627 4.802h7.939zM71.471 33c-3.947 0-7.152-3.32-7.152-7.423s3.205-7.435 7.152-7.435h9.867l-1.608 2.621h-8.076c-2.555 0-4.631 2.158-4.631 4.814s2.076 4.802 4.631 4.802h9.913L79.946 33h-8.475zm33.616-2.621c-2.11 0-3.901-1.47-4.448-3.498h11.749l1.62-2.62h-13.369c.547-2.016 2.338-3.498 4.448-3.498h8.065l1.631-2.62h-9.878c-3.947 0-7.152 3.332-7.152 7.435S100.958 33 104.905 33h8.475l1.62-2.621h-9.913z" fill="#ea1b22"></path></svg>