<svg xmlns="http://www.w3.org/2000/svg" xmlns:xlink="http://www.w3.org/1999/xlink" xmlns:v="https://vecta.io/nano" width="120" height="50" fill="none"><path d="M26.179 7.799c2.029-2.112 4.854-3.423 7.977-3.423 4.153 0 7.776 2.314 9.705 5.749a13.42 13.42 0 0 1 5.485-1.165c7.49 0 13.562 6.121 13.562 13.67s-6.072 13.671-13.562 13.671a13.47 13.47 0 0 1-2.671-.266c-1.699 3.029-4.937 5.075-8.653 5.075-1.556 0-3.027-.359-4.337-.998C31.963 44.161 27.95 47 23.273 47c-4.87 0-9.021-3.08-10.615-7.398a10.38 10.38 0 0 1-2.158.225C4.701 39.826 0 35.08 0 29.225c0-3.924 2.112-7.35 5.25-9.183a12.13 12.13 0 0 1-1.005-4.849C4.245 8.459 9.716 3 16.464 3c3.962 0 7.483 1.882 9.715 4.799z" fill="#00a1e0"></path><path d="M9.111 25.818c-.039.103.014.125.027.142.118.086.238.148.359.217.642.34 1.247.44 1.881.44 1.29 0 2.092-.686 2.092-1.79v-.021c0-1.021-.904-1.392-1.753-1.659l-.11-.036c-.64-.208-1.192-.387-1.192-.808v-.022c0-.36.323-.625.823-.625a3.72 3.72 0 0 1 1.64.419s.125.081.17-.04l.263-.706c.024-.068-.019-.118-.063-.145-.485-.295-1.155-.496-1.849-.496l-.129.001c-1.181 0-2.006.713-2.006 1.735v.021c0 1.077.91 1.427 1.762 1.67l.137.042c.621.191 1.156.355 1.156.792v.022c0 .399-.348.697-.909.697-.218 0-.912-.005-1.662-.478l-.213-.133c-.037-.023-.129-.064-.169.058l-.255.706h0zm18.892 0c-.04.103.014.125.027.142.118.086.239.148.359.217.642.34 1.247.44 1.881.44 1.29 0 2.092-.686 2.092-1.79v-.021c0-1.021-.904-1.392-1.753-1.659l-.11-.036c-.64-.208-1.192-.387-1.192-.808v-.022c0-.36.323-.625.823-.625a3.72 3.72 0 0 1 1.64.419s.125.081.17-.04l.263-.706c.024-.068-.019-.118-.063-.145-.485-.295-1.155-.496-1.849-.496l-.129.001c-1.181 0-2.006.713-2.006 1.735v.021c0 1.077.91 1.427 1.762 1.67l.137.042c.621.191 1.157.355 1.157.792v.022c0 .399-.349.697-.91.697-.218 0-.912-.005-1.662-.478l-.212-.133c-.023-.015-.133-.057-.17.058l-.255.706h0zM40.9 23.655c0 .624-.116 1.116-.346 1.463s-.57.511-1.048.511-.821-.167-1.044-.511-.341-.839-.341-1.463.115-1.114.341-1.458.565-.506 1.044-.506.822.166 1.049.506.345.835.345 1.458h0zm1.077-1.157c-.106-.357-.271-.673-.49-.935a2.37 2.37 0 0 0-.827-.629c-.329-.153-.718-.231-1.154-.231a2.73 2.73 0 0 0-1.155.231 2.38 2.38 0 0 0-.828.629 2.62 2.62 0 0 0-.49.935 4.09 4.09 0 0 0-.158 1.157 4.08 4.08 0 0 0 .158 1.157c.105.355.271.672.491.935a2.31 2.31 0 0 0 .827.623c.33.15.718.226 1.155.226s.824-.076 1.154-.226.608-.36.827-.623a2.59 2.59 0 0 0 .49-.935 4.06 4.06 0 0 0 .159-1.157c0-.412-.053-.801-.159-1.157h0zm8.846 2.965c-.036-.105-.137-.065-.137-.065a2.5 2.5 0 0 1-.501.143c-.177.028-.378.042-.591.042-.522 0-.935-.155-1.232-.461s-.464-.801-.462-1.471c.002-.61.149-1.068.413-1.418s.662-.526 1.195-.526c.445 0 .783.051 1.138.163 0 0 .085.037.125-.074l.264-.736c.029-.081-.041-.116-.066-.126-.14-.055-.47-.143-.719-.181-.233-.036-.505-.055-.808-.055-.453 0-.856.077-1.201.231a2.49 2.49 0 0 0-.868.628c-.232.264-.407.578-.524.935a3.72 3.72 0 0 0-.176 1.159c0 .893.241 1.614.717 2.143s1.193.8 2.127.8c.552 0 1.118-.112 1.525-.272 0 0 .078-.038.044-.128l-.264-.73h0zm1.885-2.406c.051-.346.147-.635.295-.86.223-.341.564-.528 1.042-.528s.795.188 1.022.528c.151.225.216.526.242.86h-2.601zm3.627-.762c-.091-.345-.318-.693-.467-.852-.235-.253-.464-.429-.692-.527a2.67 2.67 0 0 0-1.045-.211c-.455 0-.868.076-1.203.234s-.618.373-.84.64a2.62 2.62 0 0 0-.494.946c-.106.361-.16.75-.16 1.163a3.9 3.9 0 0 0 .166 1.163c.11.352.289.667.529.926a2.41 2.41 0 0 0 .917.607c.37.142.812.215 1.324.214 1.053-.004 1.608-.238 1.836-.364.04-.022.079-.062.03-.174l-.238-.667c-.036-.099-.137-.063-.137-.063-.261.097-.632.27-1.497.269-.565-.001-.985-.167-1.248-.428-.27-.267-.401-.659-.425-1.212l3.646.004s.096-.002.106-.095c.004-.039.126-.748-.108-1.57h0zm-32.829.762c.052-.346.147-.635.295-.86.223-.341.564-.528 1.042-.528s.795.188 1.022.528c.15.225.215.526.241.86h-2.601 0zm3.626-.762c-.091-.345-.317-.693-.466-.852-.235-.253-.464-.429-.692-.527a2.67 2.67 0 0 0-1.045-.211c-.454 0-.868.076-1.203.234s-.618.373-.84.64a2.62 2.62 0 0 0-.494.946 4.12 4.12 0 0 0-.16 1.163c0 .42.055.811.166 1.163s.289.667.529.926.548.465.917.607.812.215 1.324.214c1.053-.004 1.608-.238 1.836-.364.04-.022.079-.062.03-.174l-.238-.667c-.037-.099-.138-.063-.138-.063-.261.097-.631.27-1.497.269-.564-.001-.984-.167-1.247-.428-.27-.267-.401-.659-.425-1.212l3.646.004s.096-.002.106-.095c.003-.039.125-.748-.109-1.57h0zm-11.507 3.148c-.143-.114-.162-.142-.211-.216-.072-.112-.108-.271-.108-.474 0-.321.106-.551.325-.706-.003.001.314-.273 1.057-.263a7.49 7.49 0 0 1 .989.084v1.657h.001s-.463.099-.985.131c-.742.045-1.072-.214-1.069-.213h0zm1.451-2.56l-.569-.017a3.46 3.46 0 0 0-.898.115 2.34 2.34 0 0 0-.762.353 1.76 1.76 0 0 0-.529.601c-.129.24-.194.523-.194.84s.056.603.167.832a1.5 1.5 0 0 0 .476.569c.203.148.453.256.743.322s.61.098.965.098c.374 0 .746-.03 1.108-.092l.919-.177.255-.065c.091-.022.083-.119.083-.119l-.002-3.332c0-.731-.195-1.272-.58-1.608s-.946-.504-1.675-.504a6.01 6.01 0 0 0-.977.091s-.797.154-1.125.41c0 0-.072.045-.032.145l.258.693c.032.09.119.059.119.059s.028-.011.06-.03c.702-.381 1.589-.37 1.589-.37.394 0 .697.079.902.235.199.152.3.382.3.868v.154l-.601-.071h0zm29.41-1.878c.028-.082-.031-.122-.055-.131a3.16 3.16 0 0 0-.611-.105c-.458-.028-.712.049-.94.151s-.477.267-.617.454v-.443c0-.062-.044-.111-.105-.111h-.935c-.061 0-.105.049-.105.111v5.435c0 .061.05.111.111.111h.958c.029 0 .057-.012.078-.033a.11.11 0 0 0 .032-.078v-2.715c0-.364.04-.728.121-.956s.186-.407.319-.536a1.12 1.12 0 0 1 .451-.27c.169-.052.357-.069.489-.069a2.05 2.05 0 0 1 .401.049c.07.008.109-.035.133-.098l.274-.765m-8.993-2.52c-.117-.036-.222-.06-.36-.086a2.75 2.75 0 0 0-.496-.038c-.66 0-1.179.186-1.544.553s-.61.921-.733 1.653l-.045.246h-.828s-.1-.003-.122.106l-.135.758c-.01.072.022.117.118.117h.806l-.817 4.56c-.064.367-.137.669-.219.898s-.158.395-.255.518c-.093.118-.181.206-.333.257a1.36 1.36 0 0 1-.429.062 1.6 1.6 0 0 1-.292-.032c-.087-.018-.132-.036-.197-.064 0 0-.094-.036-.132.058l-.271.741c-.025.073.011.129.056.146.108.038.187.063.333.098a2.21 2.21 0 0 0 .534.05c.335 0 .642-.047.895-.139a1.69 1.69 0 0 0 .674-.469c.212-.235.346-.48.473-.816a6.92 6.92 0 0 0 .321-1.223l.822-4.645h1.201s.101.004.122-.107l.136-.758c.009-.073-.021-.117-.119-.117H35.49c.006-.026.059-.436.193-.822.057-.164.165-.297.255-.389s.193-.153.306-.19.247-.055.392-.055a1.53 1.53 0 0 1 .299.029l.187.046c.119.036.135.001.159-.056l.279-.765c.029-.082-.042-.117-.067-.127h0zm-16.29 7.88c0 .061-.044.11-.105.11h-.967c-.061 0-.104-.049-.104-.11V18.59c0-.061.043-.11.104-.11h.967c.061 0 .105.049.105.11v7.776z" fill="#fff"></path><g fill="#31547e"><path d="M68.742 28.049h1.166v-4.473a3.11 3.11 0 0 0 2.444 1.127c2.061 0 3.658-1.822 3.658-4.158 0-2.32-1.565-4.142-3.594-4.142-1.038 0-1.933.447-2.524 1.259v-1.16h-1.15v11.547zm3.386-10.586c1.565 0 2.731 1.325 2.731 3.098s-1.166 3.098-2.731 3.098c-.894 0-1.709-.414-2.22-1.127v-3.959c.495-.712 1.294-1.11 2.22-1.11zm8.416 7.273c.958 0 1.789-.365 2.476-1.094v.944h1.15v-5.368c0-1.839-1.086-2.85-3.019-2.85-.942 0-1.869.248-2.939.779l.431.928c.91-.48 1.645-.696 2.364-.696 1.326 0 2.013.679 2.013 2.005v1.11c-.687-.431-1.485-.63-2.38-.63-1.757 0-2.923.961-2.923 2.402 0 1.458 1.166 2.469 2.827 2.469zm-1.709-2.502c0-.895.783-1.491 1.981-1.491.878 0 1.549.182 2.204.58v1.557c-.639.63-1.358.928-2.236.928-1.166 0-1.949-.63-1.949-1.574zm7.705 2.353h1.166v-5.533c.399-1.044 1.134-1.64 2.092-1.64.256 0 .559.066.815.149v-1.094a2.14 2.14 0 0 0-.735-.116c-.99 0-1.773.663-2.172 1.789v-1.64H86.54v8.085zm6.573-1.823c0 1.292.703 1.972 2.045 1.972.447 0 .926-.066 1.358-.215v-1.077a2.71 2.71 0 0 1-1.102.215c-.815 0-1.134-.348-1.134-1.209v-4.954h2.236v-.994H94.28V14l-1.166.282v2.22H91.5v.994h1.613v5.268zm5.11 1.823h1.166v-5.964c.463-.812 1.182-1.243 2.044-1.243 1.278 0 2.093.895 2.093 2.319v4.887h1.166v-5.235c0-1.773-1.15-2.982-2.827-2.982-1.039 0-1.885.48-2.476 1.441v-1.309h-1.166v8.085zm15.25-.928l-.735-.812c-.527.514-1.326.828-2.14.828-1.486 0-2.668-1.226-2.779-2.866h6.117v-.364c0-2.32-1.533-4.076-3.578-4.076-2.076 0-3.673 1.806-3.673 4.175s1.677 4.192 3.865 4.192c1.086 0 2.028-.348 2.923-1.077zm-3.131-6.246c1.278 0 2.268 1.077 2.444 2.535h-4.935c.207-1.491 1.197-2.535 2.491-2.535zm5.585 7.174h1.166v-5.533c.399-1.044 1.134-1.64 2.092-1.64.256 0 .559.066.815.149v-1.094c-.24-.083-.463-.116-.735-.116-.99 0-1.773.663-2.172 1.789v-1.64h-1.166v8.085zm-45.82 9.049c-.834 0-1.479-.723-1.479-1.668 0-.928.645-1.659 1.471-1.659.439 0 .886.205 1.187.544l.404-.455a2.25 2.25 0 0 0-1.617-.678c-1.17 0-2.073.99-2.073 2.248 0 1.267.912 2.257 2.073 2.257.611 0 1.187-.259 1.591-.705l-.387-.401a1.52 1.52 0 0 1-1.17.517zm2.143-1.668c0 1.285.886 2.266 2.038 2.266 1.161 0 2.047-.972 2.047-2.266 0-1.285-.877-2.248-2.047-2.248-1.161 0-2.038.963-2.038 2.248zm2.038 1.686c-.817 0-1.419-.705-1.419-1.677 0-.963.602-1.686 1.419-1.686s1.428.723 1.428 1.686-.611 1.677-1.428 1.677z"></path><use xlink:href="#B"></use><use xlink:href="#B" x="7.265"></use><path d="M92.536 29.791h-.637v2.81c0 .955.619 1.615 1.522 1.615.568 0 1.015-.259 1.333-.776v.705h.628v-4.353h-.628v3.22c-.249.428-.636.66-1.101.66-.688 0-1.118-.482-1.118-1.258v-2.623zm4.135 4.354h.628v-3.212c.249-.437.636-.669 1.101-.669.688 0 1.127.482 1.127 1.249v2.632h.628v-2.819c0-.955-.62-1.606-1.522-1.606-.559 0-1.015.259-1.333.776v-.705h-.628v4.353zm5.063-5.424c.25 0 .447-.205.447-.473 0-.25-.206-.464-.447-.464-.249 0-.456.214-.456.464 0 .268.198.473.456.473zm.31 1.07h-.628v4.353h.628v-4.353zm1.786 3.372c0 .696.378 1.062 1.101 1.062.241 0 .499-.036.731-.116v-.58a1.46 1.46 0 0 1-.594.116c-.438 0-.61-.187-.61-.651v-2.667h1.204v-.535h-1.204v-1.347l-.628.152v1.195h-.869v.535h.869v2.837zm3.661 1.677c-.155.392-.353.553-.671.553-.094 0-.172 0-.344-.036v.58a1.39 1.39 0 0 0 .404.062c.62 0 .938-.259 1.205-.963l2.081-5.245h-.697l-1.35 3.577-1.273-3.577h-.697l1.617 4.344-.275.705z"></path></g><defs><path id="B" d="M77.437 34.145h.628v-3.238c.249-.428.593-.642 1.023-.642.636 0 1.041.473 1.041 1.231v2.649h.628v-2.81a1.87 1.87 0 0 0-.034-.384c.258-.464.611-.687 1.049-.687.636 0 1.032.473 1.032 1.231v2.649h.628v-2.81c0-.954-.585-1.615-1.428-1.615-.611 0-1.075.285-1.402.848-.232-.517-.697-.848-1.29-.848-.516 0-.929.25-1.247.749v-.678h-.628v4.353z"></path></defs></svg>