<svg xmlns="http://www.w3.org/2000/svg" xmlns:v="https://vecta.io/nano" width="120" height="50" fill="none"><path d="M44.859 19.615c0 .885.095 1.602.262 2.129.191.526.429 1.1.763 1.722.119.191.167.383.167.55 0 .239-.143.478-.453.718l-1.502 1.005c-.214.143-.429.215-.62.215-.238 0-.477-.12-.715-.335a7.4 7.4 0 0 1-.858-1.124l-.739-1.411c-1.859 2.2-4.195 3.301-7.008 3.301-2.002 0-3.599-.574-4.768-1.722s-1.764-2.679-1.764-4.592c0-2.033.715-3.683 2.169-4.927s3.385-1.866 5.84-1.866a18.81 18.81 0 0 1 2.527.191c.882.12 1.788.311 2.741.526v-1.746c0-1.818-.381-3.085-1.12-3.827-.763-.741-2.05-1.1-3.886-1.1a10.81 10.81 0 0 0-2.575.311c-.882.215-1.74.478-2.574.813-.381.167-.668.263-.834.311s-.286.072-.381.072c-.334 0-.501-.239-.501-.741V6.915c0-.383.048-.67.167-.837s.334-.335.668-.502c.834-.431 1.835-.789 3.003-1.076 1.168-.311 2.408-.454 3.719-.454 2.837 0 4.91.646 6.245 1.937 1.311 1.292 1.979 3.253 1.979 5.884v7.749h.048zm-9.678 3.636c.787 0 1.597-.143 2.455-.431s1.621-.813 2.265-1.531c.381-.454.668-.957.811-1.531s.238-1.268.238-2.081v-1.005a19.86 19.86 0 0 0-2.193-.407c-.763-.096-1.502-.144-2.241-.144-1.597 0-2.765.311-3.552.957s-1.168 1.555-1.168 2.75c0 1.124.286 1.961.882 2.535.572.598 1.406.885 2.503.885h0zm19.142 2.583c-.429 0-.715-.072-.906-.239-.191-.143-.358-.478-.501-.933L47.314 6.173c-.143-.478-.214-.789-.214-.957 0-.383.191-.598.572-.598h2.336c.453 0 .763.072.93.239.191.143.334.478.477.933l4.005 15.833L59.137 5.79c.119-.478.262-.789.453-.933s.524-.239.953-.239h1.907c.453 0 .763.072.953.239.191.143.358.478.453.933l3.766 16.025L71.748 5.79c.143-.478.31-.789.477-.933.191-.144.501-.239.93-.239h2.217c.381 0 .596.191.596.598 0 .12-.024.239-.048.383s-.072.335-.167.598l-5.745 18.488c-.143.478-.31.789-.501.933s-.501.239-.906.239h-2.05c-.453 0-.763-.072-.954-.239s-.358-.478-.453-.957L61.45 9.234l-3.671 15.403c-.119.478-.262.789-.453.957s-.524.239-.953.239h-2.05 0zm30.631.646c-1.24 0-2.479-.143-3.671-.43s-2.122-.598-2.741-.957c-.381-.215-.644-.454-.739-.67a1.69 1.69 0 0 1-.143-.67v-1.22c0-.502.191-.741.548-.741.143 0 .286.024.429.072s.358.143.596.239a12.93 12.93 0 0 0 2.622.837c.954.191 1.883.287 2.837.287 1.502 0 2.67-.263 3.48-.789s1.24-1.292 1.24-2.272c0-.67-.215-1.22-.644-1.674s-1.24-.861-2.408-1.244l-3.457-1.076c-1.74-.55-3.027-1.363-3.814-2.44-.787-1.052-1.192-2.224-1.192-3.468 0-1.005.215-1.889.644-2.655s1.001-1.435 1.716-1.961c.715-.55 1.526-.957 2.479-1.244s1.955-.407 3.004-.407c.524 0 1.073.024 1.597.096l1.549.263 1.359.383c.429.144.763.287 1.001.431.334.191.572.383.715.598.143.191.215.454.215.789V7.68c0 .502-.191.765-.548.765-.191 0-.501-.096-.906-.287-1.359-.622-2.884-.933-4.577-.933-1.359 0-2.431.215-3.17.67s-1.12 1.148-1.12 2.129a2.26 2.26 0 0 0 .715 1.698c.477.454 1.359.909 2.622 1.315l3.385 1.076c1.716.55 2.956 1.316 3.695 2.296s1.097 2.105 1.097 3.348c0 1.029-.215 1.961-.62 2.774-.429.813-1.001 1.531-1.74 2.105-.739.598-1.621 1.028-2.646 1.339-1.073.335-2.193.502-3.409.502h0z" fill="#252f3e"></path><path d="M89.46 38.103C81.617 43.915 70.223 47 60.425 47c-13.73 0-26.102-5.094-35.446-13.561-.739-.67-.072-1.579.81-1.052 10.107 5.884 22.574 9.447 35.47 9.447 8.701 0 18.26-1.818 27.056-5.549 1.311-.598 2.431.861 1.144 1.818zm3.266-3.731c-1.001-1.291-6.627-.622-9.178-.311-.763.096-.882-.574-.191-1.076 4.481-3.157 11.847-2.248 12.705-1.196.858 1.076-.238 8.467-4.434 12.006-.644.55-1.263.263-.977-.454.954-2.368 3.075-7.701 2.074-8.969h0z" fill="#f90"></path></svg>