<svg xmlns="http://www.w3.org/2000/svg" width="50" height="50" viewBox="0 0 50 50"><defs><linearGradient id="a" x1="74.145%" x2="23.301%" y1="89.77%" y2="9.764%"><stop offset="0%" stop-color="#EEBB97"></stop><stop offset="100%" stop-color="#FDE8DA"></stop></linearGradient><filter id="b" width="117.6%" height="130%" x="-8.8%" y="-15%" filterUnits="objectBoundingBox"><feGaussianBlur stdDeviation="1"></feGaussianBlur></filter></defs><g fill="none" fill-rule="evenodd"><circle cx="25" cy="25" r="25" fill="url(#a)"></circle><path fill="#FFF" d="M11 15h28a1 1 0 0 1 1 1v18a1 1 0 0 1-1 1H11a1 1 0 0 1-1-1V16a1 1 0 0 1 1-1z"></path><path fill="#FFF" d="M9 32h32a1 1 0 0 1 1 1v1a1 1 0 0 1-1 1H9a1 1 0 0 1-1-1v-1a1 1 0 0 1 1-1z"></path><path fill="#F59C79" d="M32 19h1a1 1 0 0 1 1 1v1a1 1 0 0 1-1 1H1a1 1 0 0 1-1-1v-1a1 1 0 0 1 1-1h1V3a1 1 0 0 1 1-1h28a1 1 0 0 1 1 1v16z" filter="url(#b)" opacity=".697" transform="translate(8 15)"></path><path fill="#FFF" d="M40 32h1a1 1 0 0 1 1 1v1a1 1 0 0 1-1 1H9a1 1 0 0 1-1-1v-1a1 1 0 0 1 1-1h1V16a1 1 0 0 1 1-1h28a1 1 0 0 1 1 1v16z"></path><path fill="#F78761" fill-rule="nonzero" d="M29.59 21.692c-.099-.059.742.46-4.144-2.569a.818.818 0 0 0-.862 0l-4.17 2.567a.86.86 0 0 0-.414.736v5.149c0 .298.153.574.402.729l4.167 2.574c.268.166.603.16.862 0l4.167-2.574a.856.856 0 0 0 .402-.73v-5.148c0-.51-.405-.728-.41-.734zm-5.423 6.946l-2.5-1.544v-3.158l2.5 1.545v3.157zM25 24.005l-2.553-1.578 2.565-1.58 2.545 1.578L25 24.005zm3.333 3.089l-2.5 1.544v-3.157l2.5-1.545v3.158z" opacity=".7"></path></g></svg>