<?xml version="1.0" encoding="utf-8"?>
<!-- Generator: Adobe Illustrator 26.1.0, SVG Export Plug-In . SVG Version: 6.00 Build 0)  -->
<svg version="1.1" id="Layer_1" xmlns="http://www.w3.org/2000/svg" xmlns:xlink="http://www.w3.org/1999/xlink" x="0px" y="0px"
	 viewBox="0 0 500 500" style="enable-background:new 0 0 500 500;" xml:space="preserve">
<style type="text/css">
	.st0{fill-rule:evenodd;clip-rule:evenodd;fill:url(#SVGID_1_);}
	.st1{fill-rule:evenodd;clip-rule:evenodd;fill:url(#SVGID_00000066478461062461680820000014492223481636861106_);}
	.st2{fill-rule:evenodd;clip-rule:evenodd;fill:url(#SVGID_00000084520335932494363540000010834829049119669655_);}
	.st3{fill-rule:evenodd;clip-rule:evenodd;fill:none;}
</style>
<g>
	<g>
		<linearGradient id="SVGID_1_" gradientUnits="userSpaceOnUse" x1="319.5066" y1="312.9702" x2="177.5091" y2="184.3299">
			<stop  offset="0" style="stop-color:#FEC053"/>
			<stop  offset="0.3273" style="stop-color:#F2203E"/>
			<stop  offset="0.6485" style="stop-color:#B729A8"/>
			<stop  offset="1" style="stop-color:#5342D6"/>
		</linearGradient>
		<path class="st0" d="M250,117.8c-73,0-132.2,59.2-132.2,132.2c0,73,59.2,132.2,132.2,132.2S382.2,323,382.2,250
			C382.2,177,323,117.8,250,117.8z M250,354.8c-57.8,0-104.8-46.9-104.8-104.8c0-57.8,46.9-104.8,104.8-104.8S354.8,192.2,354.8,250
			C354.8,307.8,307.8,354.8,250,354.8z"/>
		
			<linearGradient id="SVGID_00000163770606676095500940000004714879379489467562_" gradientUnits="userSpaceOnUse" x1="390.894" y1="131.2375" x2="368.0397" y2="110.533">
			<stop  offset="0" style="stop-color:#FEC053"/>
			<stop  offset="0.3273" style="stop-color:#F2203E"/>
			<stop  offset="0.6485" style="stop-color:#B729A8"/>
			<stop  offset="1" style="stop-color:#5342D6"/>
		</linearGradient>
		<path style="fill-rule:evenodd;clip-rule:evenodd;fill:url(#SVGID_00000163770606676095500940000004714879379489467562_);" d="
			M401,121.1c0,11.8-9.6,21.3-21.3,21.3c-11.8,0-21.3-9.5-21.3-21.3c0-11.7,9.5-21.3,21.3-21.3C391.4,99.8,401,109.4,401,121.1z"/>
		
			<linearGradient id="SVGID_00000069359290807338258970000017687818660200165267_" gradientUnits="userSpaceOnUse" x1="381.1542" y1="368.8153" x2="113.2532" y2="126.1147">
			<stop  offset="0" style="stop-color:#FEC053"/>
			<stop  offset="0.3273" style="stop-color:#F2203E"/>
			<stop  offset="0.6485" style="stop-color:#B729A8"/>
			<stop  offset="1" style="stop-color:#5342D6"/>
		</linearGradient>
		<path style="fill-rule:evenodd;clip-rule:evenodd;fill:url(#SVGID_00000069359290807338258970000017687818660200165267_);" d="
			M358.1,45H141.9C88.6,45,45,88.6,45,141.9v216.2c0,53.4,43.6,96.9,96.9,96.9h216.2c53.4,0,96.9-43.5,96.9-96.9V141.9
			C455,88.6,411.5,45,358.1,45z M430.8,358.1c0,40.1-32.6,72.7-72.7,72.7H141.9c-40,0-72.7-32.6-72.7-72.7V141.9
			c0-40,32.7-72.7,72.7-72.7h216.2c40.1,0,72.7,32.7,72.7,72.7V358.1z"/>
	</g>
	<g>
		<path class="st3" d="M250,117.8c-73,0-132.2,59.2-132.2,132.2c0,73,59.2,132.2,132.2,132.2S382.2,323,382.2,250
			C382.2,177,323,117.8,250,117.8z M250,354.8c-57.8,0-104.8-46.9-104.8-104.8c0-57.8,46.9-104.8,104.8-104.8S354.8,192.2,354.8,250
			C354.8,307.8,307.8,354.8,250,354.8z M379.7,99.8c-11.8,0-21.3,9.6-21.3,21.3c0,11.8,9.5,21.3,21.3,21.3
			c11.7,0,21.3-9.5,21.3-21.3C401,109.4,391.4,99.8,379.7,99.8z M379.7,99.8c-11.8,0-21.3,9.6-21.3,21.3c0,11.8,9.5,21.3,21.3,21.3
			c11.7,0,21.3-9.5,21.3-21.3C401,109.4,391.4,99.8,379.7,99.8z M250,117.8c-73,0-132.2,59.2-132.2,132.2
			c0,73,59.2,132.2,132.2,132.2S382.2,323,382.2,250C382.2,177,323,117.8,250,117.8z M250,354.8c-57.8,0-104.8-46.9-104.8-104.8
			c0-57.8,46.9-104.8,104.8-104.8S354.8,192.2,354.8,250C354.8,307.8,307.8,354.8,250,354.8z M358.1,45H141.9
			C88.6,45,45,88.6,45,141.9v216.2c0,53.4,43.6,96.9,96.9,96.9h216.2c53.4,0,96.9-43.5,96.9-96.9V141.9C455,88.6,411.5,45,358.1,45z
			 M430.8,358.1c0,40.1-32.6,72.7-72.7,72.7H141.9c-40,0-72.7-32.6-72.7-72.7V141.9c0-40,32.7-72.7,72.7-72.7h216.2
			c40.1,0,72.7,32.7,72.7,72.7V358.1z M379.7,99.8c-11.8,0-21.3,9.6-21.3,21.3c0,11.8,9.5,21.3,21.3,21.3c11.7,0,21.3-9.5,21.3-21.3
			C401,109.4,391.4,99.8,379.7,99.8z M250,117.8c-73,0-132.2,59.2-132.2,132.2c0,73,59.2,132.2,132.2,132.2S382.2,323,382.2,250
			C382.2,177,323,117.8,250,117.8z M250,354.8c-57.8,0-104.8-46.9-104.8-104.8c0-57.8,46.9-104.8,104.8-104.8S354.8,192.2,354.8,250
			C354.8,307.8,307.8,354.8,250,354.8z M250,117.8c-73,0-132.2,59.2-132.2,132.2c0,73,59.2,132.2,132.2,132.2S382.2,323,382.2,250
			C382.2,177,323,117.8,250,117.8z M250,354.8c-57.8,0-104.8-46.9-104.8-104.8c0-57.8,46.9-104.8,104.8-104.8S354.8,192.2,354.8,250
			C354.8,307.8,307.8,354.8,250,354.8z M379.7,99.8c-11.8,0-21.3,9.6-21.3,21.3c0,11.8,9.5,21.3,21.3,21.3
			c11.7,0,21.3-9.5,21.3-21.3C401,109.4,391.4,99.8,379.7,99.8z M379.7,99.8c-11.8,0-21.3,9.6-21.3,21.3c0,11.8,9.5,21.3,21.3,21.3
			c11.7,0,21.3-9.5,21.3-21.3C401,109.4,391.4,99.8,379.7,99.8z M250,117.8c-73,0-132.2,59.2-132.2,132.2
			c0,73,59.2,132.2,132.2,132.2S382.2,323,382.2,250C382.2,177,323,117.8,250,117.8z M250,354.8c-57.8,0-104.8-46.9-104.8-104.8
			c0-57.8,46.9-104.8,104.8-104.8S354.8,192.2,354.8,250C354.8,307.8,307.8,354.8,250,354.8z M379.7,99.8
			c-11.8,0-21.3,9.6-21.3,21.3c0,11.8,9.5,21.3,21.3,21.3c11.7,0,21.3-9.5,21.3-21.3C401,109.4,391.4,99.8,379.7,99.8z M250,117.8
			c-73,0-132.2,59.2-132.2,132.2c0,73,59.2,132.2,132.2,132.2S382.2,323,382.2,250C382.2,177,323,117.8,250,117.8z M250,354.8
			c-57.8,0-104.8-46.9-104.8-104.8c0-57.8,46.9-104.8,104.8-104.8S354.8,192.2,354.8,250C354.8,307.8,307.8,354.8,250,354.8z
			 M379.7,99.8c-11.8,0-21.3,9.6-21.3,21.3c0,11.8,9.5,21.3,21.3,21.3c11.7,0,21.3-9.5,21.3-21.3C401,109.4,391.4,99.8,379.7,99.8z
			 M250,117.8c-73,0-132.2,59.2-132.2,132.2c0,73,59.2,132.2,132.2,132.2S382.2,323,382.2,250C382.2,177,323,117.8,250,117.8z
			 M250,354.8c-57.8,0-104.8-46.9-104.8-104.8c0-57.8,46.9-104.8,104.8-104.8S354.8,192.2,354.8,250
			C354.8,307.8,307.8,354.8,250,354.8z"/>
	</g>
</g>
</svg>
